<svg width="102" height="36" viewBox="0 0 102 36" fill="none" xmlns="http://www.w3.org/2000/svg">
<mask id="path-1-inside-1_9_7411" fill="white">
<path d="M95.6665 0L101.667 6V36H6.6665L0.666504 30V0H95.6665Z"/>
</mask>
<path d="M95.6665 0L101.667 6V36H6.6665L0.666504 30V0H95.6665Z" fill="#b61b0066" fill-opacity="0.12"/>
<path d="M95.6665 0L96.3736 -0.707107L96.0807 -1H95.6665V0ZM101.667 6H102.667V5.58579L102.374 5.29289L101.667 6ZM101.667 36V37H102.667V36H101.667ZM6.6665 36L5.9594 36.7071L6.25229 37H6.6665V36ZM0.666504 30H-0.333496V30.4142L-0.0406029 30.7071L0.666504 30ZM0.666504 0V-1H-0.333496V0H0.666504ZM95.6665 0L94.9594 0.707107L100.959 6.70711L101.667 6L102.374 5.29289L96.3736 -0.707107L95.6665 0ZM101.667 6H100.667V36H101.667H102.667V6H101.667ZM101.667 36V35H6.6665V36V37H101.667V36ZM6.6665 36L7.37361 35.2929L1.37361 29.2929L0.666504 30L-0.0406029 30.7071L5.9594 36.7071L6.6665 36ZM0.666504 30H1.6665V0H0.666504H-0.333496V30H0.666504ZM0.666504 0V1H95.6665V0V-1H0.666504V0Z" fill="url(#paint0_linear_9_7411)" mask="url(#path-1-inside-1_9_7411)"/>
<defs>
<linearGradient id="paint0_linear_9_7411" x1="32.5" y1="-1.92307e-06" x2="58.0526" y2="42.3096" gradientUnits="userSpaceOnUse">
<stop stop-color="#b61b0066" stop-opacity="0.4"/>
<stop offset="0.2" stop-color="#b61b0066" stop-opacity="0.1"/>
<stop offset="0.8" stop-color="#b61b0066" stop-opacity="0.1"/>
<stop offset="1" stop-color="#b61b0066" stop-opacity="0.4"/>
</linearGradient>
</defs>
</svg>
