<svg width="1920" height="60" viewBox="0 0 1920 60" fill="none" xmlns="http://www.w3.org/2000/svg">
<path d="M1920 -1L1511.97 52.1818L1294.97 59L1260.64 34.4545L1137.03 39.9091L1112.31 57.6364H807.691L782.97 39.9091L659.365 34.4545L625.03 59L408.034 52.1818L0 -1H1920Z" fill="#030912"/>
<path d="M1920 -1L1511.97 52.1818L1294.97 59L1260.64 34.4545L1137.03 39.9091L1112.31 57.6364H807.691L782.97 39.9091L659.365 34.4545L625.03 59L408.034 52.1818L0 -1H1920Z" fill="url(#paint0_linear_9_6711)" fill-opacity="0.8"/>
<path d="M1920 -1L1511.97 52.1818L1294.97 59L1260.64 34.4545L1137.03 39.9091L1112.31 57.6364H807.691L782.97 39.9091L659.365 34.4545L625.03 59L408.034 52.1818L0 -1H1920Z" stroke="url(#paint1_linear_9_6711)" stroke-width="2"/>
<defs>
<linearGradient id="paint0_linear_9_6711" x1="960" y1="-1" x2="960" y2="44" gradientUnits="userSpaceOnUse">
<stop offset="0.302885" stop-color="#0BA5EC" stop-opacity="0"/>
<stop offset="1" stop-color="#0BA5EC" stop-opacity="0.6"/>
</linearGradient>
<linearGradient id="paint1_linear_9_6711" x1="0" y1="-1" x2="1920" y2="-1.00001" gradientUnits="userSpaceOnUse">
<stop stop-color="#7CD4FD" stop-opacity="0"/>
<stop offset="0.1" stop-color="#7CD4FD" stop-opacity="0.1"/>
<stop offset="0.21" stop-color="#065986" stop-opacity="0.5"/>
<stop offset="0.26" stop-color="#67E3F9"/>
<stop offset="0.32" stop-color="#A5F0FC"/>
<stop offset="0.34" stop-color="#065986"/>
<stop offset="0.41" stop-color="#22CCEE" stop-opacity="0.8"/>
<stop offset="0.5" stop-color="#A5F0FC"/>
<stop offset="0.59" stop-color="#22CCEE" stop-opacity="0.8"/>
<stop offset="0.66" stop-color="#065986"/>
<stop offset="0.68" stop-color="#A5F0FC"/>
<stop offset="0.74" stop-color="#67E3F9"/>
<stop offset="0.79" stop-color="#065986"/>
<stop offset="0.9" stop-color="#7CD4FD" stop-opacity="0.1"/>
<stop offset="1" stop-color="#7CD4FD" stop-opacity="0"/>
</linearGradient>
</defs>
</svg>
