<svg width="1920" height="60" viewBox="0 0 1920 60" fill="none" xmlns="http://www.w3.org/2000/svg">
  <!-- Base wave -->
  <path id="wavePath" d="M1920 -1L1511.97 52.1818L1294.97 59L1260.64 34.4545L1137.03 39.9091L1112.31 57.6364H807.691L782.97 39.9091L659.365 34.4545L625.03 59L408.034 52.1818L0 -1H1920Z" fill="#030912"/>
  <path d="M1920 -1L1511.97 52.1818L1294.97 59L1260.64 34.4545L1137.03 39.9091L1112.31 57.6364H807.691L782.97 39.9091L659.365 34.4545L625.03 59L408.034 52.1818L0 -1H1920Z" fill="url(#paint0_linear)" fill-opacity="0.8"/>
  <path d="M1920 -1L1511.97 52.1818L1294.97 59L1260.64 34.4545L1137.03 39.9091L1112.31 57.6364H807.691L782.97 39.9091L659.365 34.4545L625.03 59L408.034 52.1818L0 -1H1920Z" stroke="url(#paint1_linear)" stroke-width="2"/>

  <!-- Stroke gradients along wave -->
  <path d="M753.635 55.8389L793.587 57.7929" stroke="url(#paint2_linear)" stroke-width="2"/>
  <path d="M746.635 49.8853L786.587 51.8392" stroke="url(#paint3_linear)" stroke-width="2"/>
  <path d="M680 41L779.881 45.885" stroke="url(#paint4_linear)" stroke-width="2"/>
  <path d="M1166.37 55.8389L1126.41 57.7929" stroke="url(#paint5_linear)" stroke-width="2"/>
  <path d="M1173.37 49.8853L1133.41 52.3386" stroke="url(#paint6_linear)" stroke-width="2"/>
  <path d="M1240 41L1140.12 45.885" stroke="url(#paint7_linear)" stroke-width="2"/>

  <!-- Glowing ball (flattened ellipse with white center radial gradient) -->
  <path id="waveBallPath" d="M1920 -1L1511.97 52.1818L1294.97 59L1260.64 34.4545L1137.03 39.9091L1112.31 57.6364H807.691L782.97 39.9091L659.365 34.4545L625.03 59L408.034 52.1818L0 -1" fill="none"/>
  <g filter="url(#glow)">
    <ellipse rx="8" ry="5" fill="url(#ballGradient)">
      <animateMotion dur="20s" repeatCount="indefinite" keyPoints="0;1;0" keyTimes="0;0.5;1">
        <mpath href="#waveBallPath"/>
      </animateMotion>
    </ellipse>
  </g>

  <!-- Filters and gradients -->
  <defs>
    <filter id="glow" x="-50%" y="-50%" width="200%" height="200%">
      <feGaussianBlur stdDeviation="6" result="blur"/>
      <feMerge>
        <feMergeNode in="blur"/>
        <feMergeNode in="SourceGraphic"/>
      </feMerge>
    </filter>

    <radialGradient id="ballGradient" cx="50%" cy="50%" r="50%" fx="50%" fy="50%">
      <stop offset="0%" stop-color="white"/>
      <stop offset="100%" stop-color="#0BA5EC" stop-opacity="0.7"/>
    </radialGradient>

    <linearGradient id="paint0_linear" x1="960" y1="-1" x2="960" y2="44" gradientUnits="userSpaceOnUse">
      <stop offset="0.3" stop-color="#0BA5EC" stop-opacity="0"/>
      <stop offset="1" stop-color="#0BA5EC" stop-opacity="0.6"/>
    </linearGradient>

    <linearGradient id="paint1_linear" x1="0" y1="-1" x2="1920" y2="-1" gradientUnits="userSpaceOnUse">
      <stop stop-color="#7CD4FD" stop-opacity="0"/>
      <stop offset="0.5" stop-color="#22CCEE"/>
      <stop offset="1" stop-color="#7CD4FD" stop-opacity="0"/>
    </linearGradient>

    <!-- Stroke gradients -->
    <linearGradient id="paint2_linear" x1="753.61" y1="56.3383" x2="793.562" y2="58.2923" gradientUnits="userSpaceOnUse">
      <stop stop-color="#7CD4FD" stop-opacity="0"/>
      <stop offset="0.639" stop-color="#7CD4FD"/>
    </linearGradient>
    <linearGradient id="paint3_linear" x1="746.61" y1="50.3847" x2="786.562" y2="52.3386" gradientUnits="userSpaceOnUse">
      <stop stop-color="#7CD4FD" stop-opacity="0"/>
      <stop offset="0.639" stop-color="#7CD4FD"/>
    </linearGradient>
    <linearGradient id="paint4_linear" x1="679.976" y1="41.4994" x2="779.856" y2="46.3844" gradientUnits="userSpaceOnUse">
      <stop stop-color="#7CD4FD" stop-opacity="0"/>
      <stop offset="0.639" stop-color="#7CD4FD"/>
    </linearGradient>
    <linearGradient id="paint5_linear" x1="1166.39" y1="56.3383" x2="1126.44" y2="58.2923" gradientUnits="userSpaceOnUse">
      <stop stop-color="#7CD4FD" stop-opacity="0"/>
      <stop offset="0.639" stop-color="#7CD4FD"/>
    </linearGradient>
    <linearGradient id="paint6_linear" x1="1173.39" y1="50.3847" x2="1133.44" y2="52.3386" gradientUnits="userSpaceOnUse">
      <stop stop-color="#7CD4FD" stop-opacity="0"/>
      <stop offset="0.639" stop-color="#7CD4FD"/>
    </linearGradient>
    <linearGradient id="paint7_linear" x1="1240.02" y1="41.4994" x2="1140.14" y2="46.3844" gradientUnits="userSpaceOnUse">
      <stop stop-color="#7CD4FD" stop-opacity="0"/>
      <stop offset="0.639" stop-color="#7CD4FD"/>
    </linearGradient>
  </defs>
</svg>
